<mxfile host="app.diagrams.net" agent="Mozilla/5.0 (Windows NT 10.0; Win64; x64) AppleWebKit/537.36 (KHTML, like Gecko) Chrome/127.0.0.0 Safari/537.36" border="50" scale="3" compressed="false" locked="false" version="24.7.5">
  <diagram name="Blank" id="YmL12bMKpDGza6XwsDPr">
    <mxGraphModel dx="641" dy="619" grid="0" gridSize="10" guides="1" tooltips="1" connect="1" arrows="1" fold="1" page="0" pageScale="1" pageWidth="827" pageHeight="1169" background="none" math="1" shadow="0">
      <root>
        <mxCell id="X5NqExCQtvZxIxQ7pmgY-0" />
        <mxCell id="1" parent="X5NqExCQtvZxIxQ7pmgY-0" />
        <mxCell id="Gr0Zq-AI6Quabplr0KPa-179" value="&lt;div&gt;&lt;br&gt;&lt;/div&gt;&lt;div&gt;&lt;br&gt;&lt;/div&gt;" style="swimlane;html=1;startSize=128;horizontal=1;containerType=tree;strokeColor=#D4E1F5;strokeWidth=1;fillColor=none;swimlaneLine=0;dashed=1;collapsible=0;" parent="1" vertex="1">
          <mxGeometry x="46" y="76" width="659" height="441" as="geometry" />
        </mxCell>
        <mxCell id="QkgZtv6hDa5J6zpRdco9-1" value="&lt;h1 style=&quot;margin-top: 0px;&quot;&gt;&lt;font style=&quot;font-size: 16px;&quot;&gt;Prof. Valerie Nova (Handler)&lt;/font&gt;&lt;/h1&gt;&lt;p&gt;&lt;font size=&quot;1&quot; style=&quot;&quot;&gt;&lt;b style=&quot;font-size: 11px;&quot;&gt;Who Is She?: &lt;/b&gt;Your contact with in the mission scope and your handler from the organization called the Shadow Hunters.&lt;/font&gt;&lt;/p&gt;&lt;p&gt;&lt;font size=&quot;1&quot;&gt;&lt;b style=&quot;font-size: 11px;&quot;&gt;What does she do?:&lt;/b&gt;&amp;nbsp;Contacts you to give you missions and objectives and keeps in contact with you throughout the mission.&lt;/font&gt;&lt;/p&gt;&lt;p style=&quot;&quot;&gt;&lt;b style=&quot;&quot;&gt;&lt;font style=&quot;font-size: 11px;&quot;&gt;What is her backstory?:&lt;/font&gt;&lt;/b&gt;&lt;b style=&quot;font-size: 10px;&quot;&gt; &lt;/b&gt;&lt;font size=&quot;1&quot;&gt;She is was an ex scientist that decided 10 years later she was better as an analyst due to an incident that made her not want to continue being a scientist for the organization.&amp;nbsp;&lt;/font&gt;&lt;/p&gt;&lt;p style=&quot;&quot;&gt;&lt;span style=&quot;background-color: initial;&quot;&gt;&lt;b style=&quot;&quot;&gt;&lt;font style=&quot;font-size: 11px;&quot;&gt;Is she a friend or a foe?:&lt;/font&gt;&lt;/b&gt;&lt;font style=&quot;font-size: 10px;&quot;&gt;&amp;nbsp;Valerie is the same as you as you both just take orders however Valerie tries to help you the best she can but obviously gives you reason not to trust her.&lt;/font&gt;&lt;span style=&quot;font-size: 10px;&quot;&gt;&amp;nbsp;&lt;/span&gt;&lt;/span&gt;&lt;br&gt;&lt;/p&gt;" style="text;html=1;whiteSpace=wrap;overflow=hidden;rounded=0;" vertex="1" parent="Gr0Zq-AI6Quabplr0KPa-179">
          <mxGeometry x="3" width="248" height="291" as="geometry" />
        </mxCell>
        <mxCell id="QkgZtv6hDa5J6zpRdco9-2" value="&lt;h1 style=&quot;margin-top: 0px;&quot;&gt;&lt;font style=&quot;font-size: 16px;&quot;&gt;Shadow Hunter .49 (You)&lt;/font&gt;&lt;/h1&gt;&lt;p&gt;&lt;font size=&quot;1&quot; style=&quot;&quot;&gt;&lt;b style=&quot;font-size: 11px;&quot;&gt;Who are you?: &lt;/b&gt;You are part of an Elite Squad of hunters created by the Shadow Hunter organization. Your main goal in life is to hunt down shadow monsters and your commanded by your handler to give you directions and obey commands.&lt;/font&gt;&lt;/p&gt;&lt;p&gt;&lt;font size=&quot;1&quot;&gt;&lt;b style=&quot;font-size: 11px;&quot;&gt;What does he do?:&lt;/b&gt;&amp;nbsp;He is a trained mercenary that deals in alchemy and weapons and killing shadow monsters.&amp;nbsp;&lt;/font&gt;&lt;/p&gt;&lt;p style=&quot;&quot;&gt;&lt;b style=&quot;&quot;&gt;&lt;font style=&quot;font-size: 11px;&quot;&gt;What is his backstory?:&lt;/font&gt;&lt;/b&gt;&lt;b style=&quot;font-size: 10px;&quot;&gt; &lt;/b&gt;&lt;font size=&quot;1&quot;&gt;&amp;nbsp;He was born and raised with in the organization and was trained to be this mercenary and was the top of his class in alchemy and dealing with shadows that haunt the every day civilian and he goes in and deals with them.&amp;nbsp;&lt;/font&gt;&lt;/p&gt;&lt;p style=&quot;&quot;&gt;&lt;span style=&quot;background-color: initial;&quot;&gt;&lt;b style=&quot;&quot;&gt;&lt;font style=&quot;font-size: 11px;&quot;&gt;Does he only support the Organization?:&lt;/font&gt;&lt;/b&gt;&lt;font size=&quot;1&quot;&gt;&amp;nbsp;His heart and mind is one with the organization but thinks for himself at times and can use his own ambitions and determination to do what he needs to do and understand things that might not be 100% correct.&lt;/font&gt;&lt;/span&gt;&lt;/p&gt;&lt;p style=&quot;&quot;&gt;&lt;font size=&quot;1&quot;&gt;&lt;b style=&quot;&quot;&gt;Is his mind owned by himself or the Organization?: &lt;/b&gt;His mind is his own but chooses to follow what he has been brought up to believe and think. But most things that seem out of place he uses his trained mind and intuition to follow the string which is what makes him such a highly skilled mercenary of the Shadow Hunters.&lt;/font&gt;&lt;/p&gt;&lt;p style=&quot;&quot;&gt;&lt;span style=&quot;background-color: initial; font-size: 11px;&quot;&gt;&lt;font size=&quot;1&quot;&gt;&lt;br&gt;&lt;/font&gt;&lt;/span&gt;&lt;/p&gt;" style="text;html=1;whiteSpace=wrap;overflow=hidden;rounded=0;" vertex="1" parent="Gr0Zq-AI6Quabplr0KPa-179">
          <mxGeometry x="264" width="393" height="334" as="geometry" />
        </mxCell>
      </root>
    </mxGraphModel>
  </diagram>
</mxfile>
